<?xml version="1.0" standalone="no"?>
<!DOCTYPE svg PUBLIC "-//W3C//DTD SVG 20010904//EN"
 "http://www.w3.org/TR/2001/REC-SVG-20010904/DTD/svg10.dtd">
<svg version="1.0" xmlns="http://www.w3.org/2000/svg"
 width="300.000000pt" height="300.000000pt" viewBox="0 0 300.000000 300.000000"
 preserveAspectRatio="xMidYMid meet">
<metadata>
Created by potrace 1.10, written by Peter Selinger 2001-2011
</metadata>
<g transform="translate(0.000000,300.000000) scale(0.100000,-0.100000)"
fill="#000000" stroke="none">
<path d="M663 1520 l0 -220 44 0 43 0 0 83 c0 92 13 117 62 117 38 0 52 -35
46 -124 l-5 -76 46 0 46 0 -3 107 c-3 97 -6 110 -27 132 -33 34 -101 40 -137
12 -16 -13 -25 -28 -21 -36 3 -8 1 -15 -5 -15 -15 0 -24 -29 -31 -100 -3 -36
-10 -64 -16 -63 -11 3 -20 346 -10 372 12 30 23 -6 27 -83 3 -49 9 -81 16 -84
9 -3 12 24 12 97 l0 101 -44 0 -44 0 1 -220z m238 -8 c15 -20 18 -38 16 -98
-3 -69 -10 -94 -22 -82 -3 3 -8 35 -10 72 -5 76 -17 100 -60 121 l-30 15 43
-2 c33 -1 49 -8 63 -26z"/>
<path d="M2433 1520 l2 -220 43 0 42 0 0 83 c0 93 13 117 62 117 37 0 52 -43
46 -130 l-5 -70 46 0 47 0 -4 108 c-3 95 -6 110 -26 130 -27 27 -93 40 -124
23 -35 -19 -70 -101 -71 -166 0 -62 -4 -71 -20 -60 -14 8 -14 344 -1 365 15
24 19 8 22 -75 2 -52 7 -80 16 -83 9 -3 12 21 12 97 l0 101 -45 0 -44 0 2
-220z m229 3 c15 -13 18 -32 18 -105 0 -48 -4 -88 -9 -88 -13 0 -21 37 -21 97
0 44 -4 56 -31 82 l-31 31 28 0 c15 0 36 -7 46 -17z"/>
<path d="M310 1511 l0 -214 93 5 c55 3 104 11 122 21 39 20 91 75 104 110 16
42 13 134 -5 170 -43 85 -96 114 -222 118 l-92 4 0 -214z m206 164 c59 -25
104 -94 104 -161 0 -46 -36 -120 -69 -144 -36 -25 -107 -42 -161 -38 l-45 3
-3 177 c-2 162 -1 177 15 181 28 8 123 -3 159 -18z"/>
<path d="M402 1651 c-20 -17 -22 -28 -22 -140 0 -74 4 -121 10 -121 9 0 15
111 11 213 -1 33 1 37 24 37 68 0 115 -55 115 -134 0 -59 -35 -102 -96 -117
-48 -12 -50 -29 -4 -29 33 0 93 47 116 91 35 69 -5 173 -81 205 -44 18 -48 18
-73 -5z"/>
<path d="M1617 1720 c-1 -3 -1 -98 1 -212 l3 -208 44 0 45 0 0 80 0 80 45 0
c99 0 155 49 155 134 0 55 -16 87 -53 108 -21 12 -237 28 -240 18z m191 -32
c52 -13 72 -39 72 -94 0 -71 -30 -96 -132 -107 -47 -5 -68 -34 -68 -93 0 -52
-15 -79 -30 -55 -9 16 -13 300 -4 335 6 23 10 25 62 25 32 0 76 -5 100 -11z"/>
<path d="M1702 1657 c-43 -46 -21 -142 35 -147 32 -4 41 -1 72 26 35 30 40 67
13 100 -38 48 -87 56 -120 21z m92 -23 c20 -19 21 -68 2 -83 -8 -7 -30 -15
-50 -18 l-36 -6 0 62 0 61 34 0 c19 0 42 -7 50 -16z"/>
<path d="M2272 1610 c5 -46 3 -50 -17 -50 -18 0 -21 -4 -17 -30 3 -19 10 -30
21 -30 13 0 16 -13 16 -79 0 -100 15 -121 86 -121 55 0 61 6 53 49 -5 23 -11
30 -28 28 -19 -2 -21 4 -24 61 -3 60 -2 62 21 62 20 0 26 6 29 30 4 27 2 30
-24 30 -27 0 -28 2 -28 50 l0 50 -46 0 -47 0 5 -50z m58 -5 c0 -15 11 -36 26
-50 15 -14 23 -25 18 -25 -18 0 -44 -58 -44 -97 0 -30 7 -46 30 -68 35 -33 32
-43 -10 -37 -38 5 -50 31 -50 104 0 35 -6 57 -20 76 l-20 25 20 19 c11 10 21
25 21 33 1 8 3 20 4 25 1 6 3 12 4 15 0 3 6 5 11 5 6 0 10 -11 10 -25z"/>
<path d="M1031 1557 c-85 -43 -93 -174 -15 -236 38 -30 113 -29 142 2 12 13
19 26 16 30 -4 4 -2 13 5 21 7 8 16 28 20 44 7 24 5 37 -15 65 l-23 35 29 12
c16 7 33 9 39 6 5 -4 9 -49 8 -104 l-2 -97 -27 3 c-22 2 -28 -1 -28 -18 0 -17
6 -20 43 -20 l42 0 -2 132 -2 133 -38 -4 c-21 -1 -41 -8 -44 -13 -5 -7 -15 -5
-30 6 -28 19 -84 21 -118 3z m111 -26 c4 -3 -7 -6 -23 -7 -42 -2 -89 -49 -89
-89 0 -43 39 -87 78 -89 19 -1 27 -5 22 -10 -12 -12 -69 -10 -95 4 -20 11 -55
73 -55 97 0 15 29 70 43 81 34 26 97 34 119 13z m15 -53 c13 -12 23 -32 23
-45 0 -30 -34 -63 -65 -63 -30 0 -65 32 -65 60 0 25 43 70 66 70 10 0 28 -10
41 -22z"/>
<path d="M1304 1561 c-2 -2 -4 -62 -4 -133 l0 -128 45 0 45 0 0 83 c0 91 13
117 58 117 39 0 54 -39 47 -124 l-6 -76 46 0 45 0 0 104 c0 95 -2 107 -23 131
-32 38 -101 45 -139 15 -15 -11 -27 -24 -26 -28 1 -4 -4 -18 -12 -32 -8 -14
-17 -53 -20 -88 -8 -95 -25 -75 -28 33 -3 98 -2 100 41 96 9 -1 17 4 17 12 0
10 -13 16 -41 19 -22 2 -42 2 -45 -1z m229 -44 c20 -19 23 -32 22 -99 0 -70
-7 -99 -20 -86 -3 3 -8 35 -10 72 -5 75 -17 100 -60 121 l-30 15 38 0 c26 0
45 -7 60 -23z"/>
<path d="M1978 1554 c-74 -40 -84 -168 -18 -226 24 -22 40 -28 78 -28 27 0 57
7 70 16 20 14 22 14 22 0 0 -12 11 -16 45 -16 l45 0 0 130 0 130 -45 0 c-25 0
-45 -4 -45 -9 0 -6 -12 -3 -27 5 -36 18 -90 17 -125 -2z m77 -32 c-42 -20 -75
-58 -75 -88 0 -30 34 -73 69 -88 l36 -15 -40 0 c-76 -1 -117 58 -95 138 13 50
36 67 97 69 l48 2 -40 -18z m132 6 c8 -13 5 -176 -3 -190 -8 -13 -41 -9 -53 6
-8 10 -6 19 9 39 27 34 25 69 -6 106 l-26 31 24 9 c32 13 46 13 55 -1z m-79
-44 c45 -31 19 -114 -36 -114 -36 0 -62 27 -62 66 0 34 28 64 60 64 9 0 26 -7
38 -16z"/>
</g>
</svg>
